<?xml version="1.0" encoding="utf-8"?>
<!-- Generator: Adobe Illustrator 23.0.0, SVG Export Plug-In . SVG Version: 6.00 Build 0)  -->
<svg version="1.1" id="Layer_1" xmlns="http://www.w3.org/2000/svg" xmlns:xlink="http://www.w3.org/1999/xlink" x="0px" y="0px"
	 viewBox="0 0 794.9 260.02" style="enable-background:new 0 0 794.9 260.02;" xml:space="preserve">
<style type="text/css">
	.st0{fill:#231F20;}
	.st1{clip-path:url(#SVGID_2_);fill:#1D76BB;}
	.st2{clip-path:url(#SVGID_2_);fill:#38B34A;}
	.st3{clip-path:url(#SVGID_2_);fill:#EB2227;}
	.st4{clip-path:url(#SVGID_2_);fill:#F69320;}
	.st5{fill:#F9F9F9;}
	.st6{fill:#F9F9FA;}
	.st7{fill:#FFFFFF;}
</style>
<g>
	<path class="st0" d="M794.9,224.88c0,19.41-15.73,35.14-35.13,35.14H35.14C15.73,260.02,0,244.28,0,224.88V35.14
		C0,15.74,15.73,0,35.14,0h724.63c19.4,0,35.13,15.74,35.13,35.14V224.88z"/>
	<path class="st7" d="M137.28,44.47H72.54c-7.76,0-14.05,6.29-14.05,14.05v143.45c0,7.76,6.29,14.06,14.05,14.06h64.75
		c7.76,0,14.06-6.29,14.06-14.06V58.52C151.34,50.76,145.05,44.47,137.28,44.47z M104.91,205.71c-5.17,0-9.36-4.19-9.36-9.36
		c0-5.17,4.19-9.36,9.36-9.36c5.17,0,9.36,4.19,9.36,9.36C114.27,201.52,110.08,205.71,104.91,205.71z M140.3,182.43H69.52V76.62
		h70.78V182.43z"/>
	<g>
		<path class="st7" d="M204.37,70.04l-3.94,11.92h-5.06l12.87-37.9h5.91l12.93,37.9h-5.23l-4.05-11.92H204.37z M216.8,66.21
			l-3.77-10.91c-0.79-2.48-1.35-4.72-1.91-6.91h-0.16c-0.51,2.19-1.13,4.56-1.86,6.86l-3.71,10.97H216.8z"/>
		<path class="st7" d="M232.15,54.74l5.34,15.24c0.9,2.53,1.63,4.78,2.2,7.03h0.17c0.62-2.25,1.4-4.5,2.3-7.03l5.29-15.24h5.17
			l-10.69,27.21h-4.72l-10.34-27.21H232.15z"/>
		<path class="st7" d="M275.39,75.44c0,2.36,0.11,4.66,0.4,6.52h-4.44l-0.45-3.43h-0.17c-1.46,2.14-4.44,4.05-8.32,4.05
			c-5.51,0-8.32-3.88-8.32-7.81c0-6.58,5.85-10.18,16.36-10.12v-0.56c0-2.25-0.62-6.36-6.18-6.29c-2.59,0-5.23,0.73-7.14,2.02
			l-1.13-3.32c2.25-1.4,5.57-2.36,9-2.36c8.38,0,10.4,5.68,10.4,11.14V75.44z M270.55,68.07c-5.4-0.11-11.52,0.84-11.52,6.13
			c0,3.26,2.13,4.72,4.6,4.72c3.6,0,5.9-2.25,6.69-4.55c0.17-0.51,0.22-1.07,0.22-1.58V68.07z"/>
		<path class="st7" d="M285.39,49.74c-1.85,0-3.09-1.46-3.09-3.2c0-1.74,1.29-3.15,3.2-3.15c1.91,0,3.15,1.4,3.15,3.15
			c0,1.75-1.24,3.2-3.2,3.2H285.39z M283.03,81.95V54.74h4.95v27.21H283.03z"/>
		<path class="st7" d="M295.91,42.04h4.95v39.92h-4.95V42.04z"/>
		<path class="st7" d="M327.95,75.44c0,2.36,0.11,4.66,0.39,6.52h-4.45l-0.45-3.43h-0.17c-1.46,2.14-4.44,4.05-8.33,4.05
			c-5.51,0-8.32-3.88-8.32-7.81c0-6.58,5.85-10.18,16.37-10.12v-0.56c0-2.25-0.62-6.36-6.19-6.29c-2.58,0-5.23,0.73-7.13,2.02
			l-1.13-3.32c2.25-1.4,5.57-2.36,9-2.36c8.38,0,10.4,5.68,10.4,11.14V75.44z M323.12,68.07c-5.4-0.11-11.53,0.84-11.53,6.13
			c0,3.26,2.14,4.72,4.61,4.72c3.6,0,5.9-2.25,6.69-4.55c0.17-0.51,0.23-1.07,0.23-1.58V68.07z"/>
		<path class="st7" d="M335.59,42.04h4.95v17.03h0.12c1.74-3.03,4.89-4.95,9.27-4.95c6.75,0,11.47,5.62,11.47,13.83
			c0,9.78-6.19,14.62-12.26,14.62c-3.93,0-7.03-1.52-9.11-5.12h-0.12l-0.28,4.5h-4.27c0.17-1.86,0.22-4.61,0.22-7.03V42.04z
			 M340.54,71.05c0,0.61,0.06,1.23,0.17,1.8c0.95,3.43,3.88,5.79,7.42,5.79c5.23,0,8.26-4.22,8.26-10.46
			c0-5.51-2.81-10.17-8.09-10.17c-3.37,0-6.53,2.36-7.48,6.07c-0.17,0.62-0.28,1.3-0.28,2.08V71.05z"/>
		<path class="st7" d="M367.31,42.04h4.95v39.92h-4.95V42.04z"/>
		<path class="st7" d="M382.99,69.19c0.11,6.69,4.33,9.45,9.28,9.45c3.55,0,5.74-0.62,7.54-1.35l0.9,3.48
			c-1.74,0.79-4.78,1.75-9.11,1.75c-8.32,0-13.38-5.57-13.38-13.72c0-8.27,4.89-14.73,12.82-14.73c8.87,0,11.18,7.82,11.18,12.82
			c0,1.01-0.06,1.8-0.17,2.36L382.99,69.19z M397.44,65.65c0.05-3.09-1.3-8.05-6.81-8.05c-5.05,0-7.19,4.61-7.59,8.05H397.44z"/>
		<path class="st7" d="M430.78,82.57c-7.31,0-13.05-5.4-13.05-14c0-9.11,6.02-14.45,13.5-14.45c7.81,0,13.1,5.68,13.1,13.94
			c0,10.12-7.03,14.51-13.49,14.51H430.78z M430.95,78.86c4.72,0,8.26-4.44,8.26-10.63c0-4.61-2.3-10.4-8.15-10.4
			c-5.79,0-8.32,5.4-8.32,10.57c0,5.96,3.37,10.46,8.15,10.46H430.95z"/>
		<path class="st7" d="M450.29,62.11c0-2.87-0.06-5.12-0.23-7.37h4.39l0.28,4.44h0.11c1.35-2.53,4.5-5.06,8.99-5.06
			c3.77,0,9.63,2.25,9.63,11.58v16.25h-4.96V66.26c0-4.38-1.63-8.09-6.3-8.09c-3.21,0-5.73,2.31-6.63,5.06
			c-0.22,0.62-0.34,1.52-0.34,2.31v16.42h-4.94V62.11z"/>
		<path class="st7" d="M498.81,48.22v6.52h7.08v3.77h-7.08v14.68c0,3.37,0.96,5.29,3.71,5.29c1.35,0,2.14-0.11,2.87-0.34l0.22,3.77
			c-0.95,0.34-2.47,0.68-4.38,0.68c-2.31,0-4.17-0.79-5.35-2.08c-1.34-1.52-1.91-3.94-1.91-7.15V58.51h-4.21v-3.77h4.21v-5
			L498.81,48.22z"/>
		<path class="st7" d="M511.17,42.04h4.95v16.98h0.11c0.79-1.41,2.02-2.7,3.55-3.48c1.46-0.9,3.2-1.41,5.06-1.41
			c3.65,0,9.49,2.25,9.49,11.64v16.19h-4.94V66.33c0-4.44-1.63-8.1-6.3-8.1c-3.2,0-5.68,2.25-6.63,4.95
			c-0.28,0.68-0.34,1.41-0.34,2.36v16.42h-4.95V42.04z"/>
		<path class="st7" d="M544.9,69.19c0.11,6.69,4.33,9.45,9.28,9.45c3.54,0,5.74-0.62,7.54-1.35l0.9,3.48
			c-1.75,0.79-4.78,1.75-9.11,1.75c-8.32,0-13.38-5.57-13.38-13.72c0-8.27,4.89-14.73,12.82-14.73c8.88,0,11.19,7.82,11.19,12.82
			c0,1.01-0.06,1.8-0.17,2.36L544.9,69.19z M559.36,65.65c0.05-3.09-1.3-8.05-6.81-8.05c-5.06,0-7.2,4.61-7.59,8.05H559.36z"/>
		<path class="st7" d="M583.98,49.74c-1.86,0-3.1-1.46-3.1-3.2c0-1.74,1.29-3.15,3.21-3.15c1.91,0,3.15,1.4,3.15,3.15
			c0,1.75-1.24,3.2-3.21,3.2H583.98z M581.61,81.95V54.74h4.95v27.21H581.61z"/>
		<path class="st7" d="M594.66,44.56c2.36-0.44,5.45-0.79,9.39-0.79c4.83,0,8.38,1.12,10.62,3.15c2.08,1.8,3.38,4.55,3.38,7.93
			c0,3.43-1.01,6.13-2.98,8.09c-2.58,2.76-6.8,4.16-11.58,4.16c-1.46,0-2.81-0.06-3.93-0.33v15.18h-4.89V44.56z M599.55,62.78
			c1.07,0.28,2.48,0.39,4.05,0.39c5.96,0,9.5-2.92,9.5-8.04c0-5.06-3.54-7.48-8.94-7.48c-2.13,0-3.76,0.22-4.61,0.39V62.78z"/>
		<path class="st7" d="M623.84,42.04h4.95v16.98h0.11c0.79-1.41,2.02-2.7,3.54-3.48c1.47-0.9,3.21-1.41,5.06-1.41
			c3.65,0,9.5,2.25,9.5,11.64v16.19h-4.94V66.33c0-4.44-1.63-8.1-6.3-8.1c-3.2,0-5.67,2.25-6.63,4.95
			c-0.28,0.68-0.34,1.41-0.34,2.36v16.42h-4.95V42.04z"/>
		<path class="st7" d="M665.84,82.57c-7.31,0-13.05-5.4-13.05-14c0-9.11,6.02-14.45,13.5-14.45c7.81,0,13.09,5.68,13.09,13.94
			c0,10.12-7.03,14.51-13.49,14.51H665.84z M666.01,78.86c4.71,0,8.26-4.44,8.26-10.63c0-4.61-2.3-10.4-8.16-10.4
			c-5.79,0-8.32,5.4-8.32,10.57c0,5.96,3.37,10.46,8.15,10.46H666.01z"/>
		<path class="st7" d="M685.35,62.11c0-2.87-0.06-5.12-0.22-7.37h4.39l0.28,4.44h0.12c1.35-2.53,4.5-5.06,8.99-5.06
			c3.77,0,9.61,2.25,9.61,11.58v16.25h-4.94V66.26c0-4.38-1.63-8.09-6.3-8.09c-3.2,0-5.73,2.31-6.63,5.06
			c-0.23,0.62-0.35,1.52-0.35,2.31v16.42h-4.94V62.11z"/>
		<path class="st7" d="M719.08,69.19c0.11,6.69,4.33,9.45,9.28,9.45c3.54,0,5.73-0.62,7.53-1.35l0.9,3.48
			c-1.75,0.79-4.78,1.75-9.11,1.75c-8.32,0-13.38-5.57-13.38-13.72c0-8.27,4.89-14.73,12.82-14.73c8.88,0,11.19,7.82,11.19,12.82
			c0,1.01-0.05,1.8-0.17,2.36L719.08,69.19z M733.53,65.65c0.05-3.09-1.3-8.05-6.81-8.05c-5.06,0-7.2,4.61-7.59,8.05H733.53z"/>
	</g>
	<g>
		<path class="st7" d="M227.67,107.62l-33.34,98.13h15.27l9.95-30.13h32.28l10.23,30.13h15.69l-33.48-98.13H227.67z M235.58,123.76
			c1.13,4.38,2.34,8.93,3.9,13.84l8.98,26.02h-25.57l8.86-26.19C233.1,133.19,234.38,128.6,235.58,123.76z"/>
		<path class="st7" d="M320.89,133.06c-10.11,0-18.21,3.9-23.6,11.32l-0.59-9.76h-13.58l0.08,1.25c0.4,6.08,0.57,12.77,0.57,22.38
			v75.64h14.84v-35.3c4.61,5.51,11.96,8.72,20.3,8.72c8.68,0,16.67-3.4,22.5-9.56c6.5-6.87,9.93-16.75,9.93-28.56
			c0-10.43-2.98-19.45-8.63-26.08C337.18,136.63,329.44,133.06,320.89,133.06z M317.19,145.35c13.24,0,19.16,12.26,19.16,24.41
			c0,15.67-7.56,25.41-19.72,25.41c-8.3,0-15.49-5.65-17.49-13.78c-0.34-1.26-0.53-2.93-0.53-4.81v-11.94
			c0-1.08,0.24-2.39,0.47-3.66c0.07-0.41,0.15-0.81,0.21-1.21C301.51,151.28,308.86,145.35,317.19,145.35z"/>
		<path class="st7" d="M397.35,133.06c-10.11,0-18.21,3.9-23.61,11.32l-0.59-9.76h-13.58l0.08,1.25c0.4,6.09,0.57,12.77,0.57,22.38
			v75.64h14.85v-35.3c4.6,5.51,11.96,8.72,20.29,8.72c8.68,0,16.67-3.4,22.51-9.56c6.5-6.87,9.93-16.75,9.93-28.56
			c0-10.43-2.98-19.45-8.63-26.08C413.64,136.63,405.89,133.06,397.35,133.06z M393.65,145.35c13.23,0,19.15,12.26,19.15,24.41
			c0,15.67-7.56,25.41-19.72,25.41c-8.3,0-15.49-5.65-17.49-13.78c-0.34-1.26-0.52-2.93-0.52-4.81v-11.94c0-1.09,0.24-2.4,0.47-3.68
			c0.07-0.4,0.15-0.8,0.21-1.19C377.96,151.28,385.32,145.35,393.65,145.35z"/>
		<path class="st7" d="M493.13,149.2c-13.86-5.37-18.3-9.59-18.3-17.38c0-6.57,5.22-13.19,16.88-13.19c9.62,0,15.77,3.34,17.43,4.37
			l1.26,0.78l4.19-12.39l-0.83-0.48c-2.49-1.46-9.57-4.85-21.62-4.85c-18.93,0-32.16,11.18-32.16,27.18
			c0,12.9,8.28,21.92,26.06,28.38c12.6,4.71,17.29,9.54,17.29,17.81c0,9.36-7.23,15.17-18.87,15.17c-7.58,0-15.38-2.21-21.4-6.07
			l-1.29-0.83l-3.99,12.68l0.73,0.49c5.6,3.74,16.15,6.45,25.09,6.45c25.52,0,34.57-15.56,34.57-28.88
			C518.17,164.7,510.92,156.22,493.13,149.2z"/>
		<path class="st7" d="M544.9,117.72l-14.56,4.57v12.33h-10.66v11.87h10.66v36.35c0,8.79,1.68,14.95,5.14,18.84
			c3.32,3.64,8.42,5.64,14.36,5.64c5.62,0,9.6-1.11,11.48-1.77l0.83-0.29l-0.71-11.89l-1.42,0.44c-1.88,0.58-3.81,0.8-6.91,0.8
			c-5.76,0-8.21-3.64-8.21-12.19v-35.92h17.91v-11.87H544.9V117.72z"/>
		<path class="st7" d="M599.6,133.06c-20.77,0-35.28,15.5-35.28,37.69c0,21.53,14.04,36.56,34.14,36.56h0.14
			c16.99,0,35.28-11.84,35.28-37.84c0-10.57-3.27-19.65-9.46-26.26C618.19,136.58,609.61,133.06,599.6,133.06z M599.17,144.78
			c13.36,0,19.44,13.02,19.44,25.12c0,14.88-8.3,25.69-19.72,25.69h-0.14c-11.26,0-19.44-10.62-19.44-25.26
			C579.31,157.62,585.45,144.78,599.17,144.78z"/>
		<path class="st7" d="M679.36,133.75l-0.89-0.23c-1.31-0.33-2.38-0.46-3.69-0.46c-7.77,0-14.74,4.57-18.62,11.95l-0.44-10.39H642.4
			l0.09,1.25c0.39,5.88,0.56,12.48,0.56,21.38l-0.14,48.5h14.85v-37.84c0-2.06,0.14-4.01,0.41-5.75
			c1.68-9.09,7.81-14.96,15.62-14.96c1.52,0,2.72,0.12,3.99,0.25l1.59,0.16V133.75z"/>
		<path class="st7" d="M712.74,132.92c-19.77,0-33.57,15.79-33.57,38.4c0,21.78,13.74,35.85,34.99,35.85
			c11.18,0,18.96-2.45,23.51-4.51l0.89-0.4l-2.85-11.06l-1.24,0.5c-4.05,1.65-9.42,3.33-18.6,3.33c-6.45,0-21.32-2.13-22.24-21.53
			l47.93,0.14l0.19-0.95c0.3-1.51,0.45-3.54,0.45-6.2C742.19,151.01,734.48,132.92,712.74,132.92z M711.75,144.22
			c4.52,0,8.19,1.4,10.9,4.16c4.27,4.35,5.02,10.75,5.11,13.82H693.9C695.28,153.62,700.64,144.22,711.75,144.22z"/>
	</g>
</g>
</svg>
