<?xml version="1.0" encoding="utf-8"?>
<!-- Generator: Adobe Illustrator 23.0.0, SVG Export Plug-In . SVG Version: 6.00 Build 0)  -->
<svg version="1.1" id="Layer_1" xmlns="http://www.w3.org/2000/svg" xmlns:xlink="http://www.w3.org/1999/xlink" x="0px" y="0px"
	 viewBox="0 0 1009.95 352.86" style="enable-background:new 0 0 1009.95 352.86;" xml:space="preserve">
<style type="text/css">
	.st0{fill:#F59120;stroke:#FFFFFF;stroke-width:14;stroke-miterlimit:10;}
	.st1{fill:#1B75BA;stroke:#FFFFFF;stroke-width:14;stroke-miterlimit:10;}
	.st2{fill:#36B24A;stroke:#FFFFFF;stroke-width:14;stroke-miterlimit:10;}
	.st3{fill:#EA2127;stroke:#FFFFFF;stroke-width:14;stroke-miterlimit:10;}
	.st4{fill:#F59120;}
	.st5{fill:#1B75BA;}
	.st6{fill:#36B24A;}
	.st7{fill:#EA2127;}
	.st8{fill:#EA2127;stroke:#FFFFFF;stroke-width:16.5789;stroke-miterlimit:10;}
	.st9{fill:#EC4040;}
	.st10{fill:#FFFFFF;}
</style>
<g>
	<g>
		<path class="st0" d="M225.78,103.1h193.19v96.31h-48.44v121.1h-96.31V199.4h-48.44V103.1z"/>
		<path class="st1" d="M626.11,320.5H445.46V103.1h180.65v54.56h-84.34v26.93h58.55v54.56h-58.55v26.78h84.34V320.5z"/>
		<path class="st2" d="M654.61,103.1h93.32l39.46,45.3l39.32-45.3h93.46v217.4h-96.31V211.66l-36.47,42.03l-36.47-42.03V320.5
			h-96.31V103.1z"/>
		<path class="st3" d="M187.74,182.73c-15.39-21.18-33.39-31.77-53.99-31.77c-11.3,0-16.95,4.27-16.95,12.82
			c0,3.51,3.23,7.08,9.69,10.68c2.66,1.52,6.08,3.18,10.26,4.99l26.36,10.69c5.22,2.19,9.83,4.23,13.82,6.13
			c10.16,5.03,17.95,10.26,23.36,15.67c10.16,10.16,15.24,23.7,15.24,40.6c0,47.68-34.86,71.52-104.57,71.52
			c-18.81,0-36.04-1.24-51.72-3.7c-16.91-2.66-32.82-6.89-47.73-12.68l23.65-72.66c14.53,23.18,32.72,34.76,54.56,34.76
			c10.73,0,16.1-4.08,16.1-12.25c0-5.51-4.46-10.49-13.39-14.96c-1.81-0.95-3.94-1.95-6.41-2.99l-22.94-9.55
			c-5.98-2.75-11.16-5.56-15.53-8.41c-5.41-3.61-9.97-7.5-13.68-11.68c-8.93-9.97-13.39-22.41-13.39-37.33
			c0-48.63,34.76-72.94,104.29-72.94c32.29,0,61.26,4.84,86.9,14.53L187.74,182.73z"/>
	</g>
	<g>
		<path class="st4" d="M225.78,103.1h193.19v96.31h-48.44v121.1h-96.31V199.4h-48.44V103.1z"/>
		<path class="st5" d="M626.11,320.5H445.46V103.1h180.65v54.56h-84.34v26.93h58.55v54.56h-58.55v26.78h84.34V320.5z"/>
		<path class="st6" d="M654.61,103.1h93.32l39.46,45.3l39.32-45.3h93.46v217.4h-96.31V211.66l-36.47,42.03l-36.47-42.03V320.5
			h-96.31V103.1z"/>
		<path class="st7" d="M187.74,182.73c-15.39-21.18-33.39-31.77-53.99-31.77c-11.3,0-16.95,4.27-16.95,12.82
			c0,3.51,3.23,7.08,9.69,10.68c2.66,1.52,6.08,3.18,10.26,4.99l26.36,10.69c5.22,2.19,9.83,4.23,13.82,6.13
			c10.16,5.03,17.95,10.26,23.36,15.67c10.16,10.16,15.24,23.7,15.24,40.6c0,47.68-34.86,71.52-104.57,71.52
			c-18.81,0-36.04-1.24-51.72-3.7c-16.91-2.66-32.82-6.89-47.73-12.68l23.65-72.66c14.53,23.18,32.72,34.76,54.56,34.76
			c10.73,0,16.1-4.08,16.1-12.25c0-5.51-4.46-10.49-13.39-14.96c-1.81-0.95-3.94-1.95-6.41-2.99l-22.94-9.55
			c-5.98-2.75-11.16-5.56-15.53-8.41c-5.41-3.61-9.97-7.5-13.68-11.68c-8.93-9.97-13.39-22.41-13.39-37.33
			c0-48.63,34.76-72.94,104.29-72.94c32.29,0,61.26,4.84,86.9,14.53L187.74,182.73z"/>
	</g>
	<g>
		<circle class="st8" cx="907.01" cy="107.97" r="84.62"/>
		<circle class="st9" cx="907.01" cy="107.97" r="84.62"/>
		<g>
			<path class="st10" d="M912.37,70.88l-7.8,52.26c-1.43,9.42-5.09,16.59-10.99,21.51c-5.9,4.93-13.1,7.39-21.6,7.39
				c-8.06,0-14.38-2.57-18.96-7.72c-4.58-5.15-6.19-12.21-4.84-21.19l7.8-52.26h15.44l-7.8,52.26c-0.88,5.64-0.4,9.86,1.43,12.64
				c1.83,2.78,4.74,4.18,8.74,4.18c3.85,0,7.14-1.45,9.89-4.34c2.75-2.89,4.54-7.05,5.39-12.48l7.8-52.26H912.37z"/>
			<path class="st10" d="M931.94,121.93l-4.34,28.96h-15.5l11.98-80.01h26.76c7.73,0,13.66,2.38,17.78,7.14
				c4.12,4.76,5.63,10.9,4.53,18.41c-1.25,7.95-4.51,14.19-9.81,18.71c-5.3,4.53-12.01,6.79-20.14,6.79H931.94z M933.75,109.78
				h11.26c3.33,0,6.14-1.26,8.41-3.79c2.27-2.53,3.68-5.68,4.23-9.45c0.62-4.07,0.22-7.34-1.21-9.81c-1.43-2.47-3.9-3.71-7.42-3.71
				h-11.27L933.75,109.78z"/>
		</g>
	</g>
</g>
</svg>
