<?xml version="1.0" encoding="utf-8"?>
<!-- Generator: Adobe Illustrator 23.0.0, SVG Export Plug-In . SVG Version: 6.00 Build 0)  -->
<svg version="1.1" id="Layer_1" xmlns="http://www.w3.org/2000/svg" xmlns:xlink="http://www.w3.org/1999/xlink" x="0px" y="0px"
	 viewBox="0 0 794.9 259.15" style="enable-background:new 0 0 794.9 259.15;" xml:space="preserve">
<style type="text/css">
	.st0{fill:#231F20;}
	.st1{clip-path:url(#SVGID_2_);fill:#1D76BB;}
	.st2{clip-path:url(#SVGID_2_);fill:#38B34A;}
	.st3{clip-path:url(#SVGID_2_);fill:#EB2227;}
	.st4{clip-path:url(#SVGID_2_);fill:#F69320;}
	.st5{fill:#F9F9F9;}
	.st6{fill:#F9F9FA;}
	.st7{fill:#FFFFFF;}
</style>
<g>
	<path class="st0" d="M794.9,224.01c0,19.41-15.73,35.14-35.13,35.14H35.14C15.73,259.15,0,243.41,0,224.01V34.27
		C0,14.87,15.73-0.87,35.14-0.87h724.63c19.4,0,35.13,15.74,35.13,35.14V224.01z"/>
	<g id="PLAY_1_">
		<defs>
			<path id="SVGID_1_" d="M172.26,113.59l-35.84-20.69c0,0-65.3-37.7-69.14-39.92c-3.84-2.22-7.66-0.87-7.66,3.76
				c0,7.72,0,80.5,0,80.5s0,78.66,0,82.14c0,3.47,2.73,4.97,6.07,3.04c3.33-1.93,70.73-40.84,70.73-40.84l35.84-20.69
				c0,0,30.41-17.56,34.45-19.89c4.04-2.34,3.65-5.54,0.24-7.37C203.55,131.78,172.26,113.59,172.26,113.59z"/>
		</defs>
		<clipPath id="SVGID_2_">
			<use xlink:href="#SVGID_1_"  style="overflow:visible;"/>
		</clipPath>
		<polygon class="st1" points="59.62,49.19 59.62,137.23 59.62,225.27 148.42,137.23 		"/>
		<polygon class="st2" points="172.26,113.59 136.42,92.89 59.62,48.55 59.62,49.19 148.42,137.23 		"/>
		<polygon class="st3" points="59.62,225.27 59.62,225.92 136.42,181.57 172.26,160.88 148.42,137.23 		"/>
		<polygon class="st4" points="172.26,113.59 148.42,137.23 172.26,160.88 213.22,137.23 		"/>
	</g>
	<g>
		<path class="st5" d="M618.63,171.65c-3.33,0-6.38-0.61-9.13-1.84c-2.76-1.23-5.07-3.12-6.94-5.68h-0.56
			c0.37,2.99,0.56,5.82,0.56,8.5v21.07h-7.75v-74.2h6.31l1.07,7.01h0.37c2-2.8,4.32-4.83,6.96-6.07c2.65-1.25,5.69-1.87,9.11-1.87
			c6.79,0,12.03,2.32,15.72,6.96c3.69,4.64,5.54,11.15,5.54,19.53c0,8.41-1.88,14.94-5.63,19.6
			C630.5,169.33,625.3,171.65,618.63,171.65z M617.51,125.16c-5.23,0-9.02,1.45-11.35,4.35c-2.34,2.9-3.54,7.51-3.6,13.83v1.73
			c0,7.2,1.2,12.34,3.6,15.44c2.4,3.1,6.25,4.65,11.54,4.65c4.43,0,7.89-1.79,10.4-5.37c2.51-3.58,3.76-8.52,3.76-14.81
			c0-6.38-1.25-11.28-3.76-14.69C625.58,126.87,622.05,125.16,617.51,125.16z"/>
		<path class="st5" d="M657.85,170.72h-7.76v-72.7h7.76V170.72z"/>
		<path class="st5" d="M702.44,170.72l-1.54-7.29h-0.37c-2.55,3.21-5.1,5.38-7.64,6.52c-2.54,1.14-5.71,1.71-9.51,1.71
			c-5.08,0-9.06-1.31-11.94-3.92c-2.88-2.62-4.32-6.34-4.32-11.17c0-10.34,8.27-15.76,24.81-16.26l8.69-0.28v-3.18
			c0-4.02-0.87-6.99-2.6-8.9c-1.73-1.92-4.5-2.87-8.29-2.87c-4.27,0-9.1,1.31-14.48,3.92l-2.38-5.93c2.53-1.37,5.29-2.45,8.3-3.22
			c3.01-0.78,6.02-1.17,9.04-1.17c6.1,0,10.63,1.35,13.57,4.06c2.94,2.71,4.41,7.06,4.41,13.04v34.95H702.44z M684.92,165.25
			c4.83,0,8.62-1.32,11.38-3.97c2.75-2.65,4.14-6.35,4.14-11.12v-4.62l-7.76,0.32c-6.17,0.22-10.61,1.18-13.34,2.88
			c-2.72,1.7-4.09,4.34-4.09,7.92c0,2.8,0.85,4.94,2.55,6.4C679.49,164.52,681.86,165.25,684.92,165.25z"/>
		<path class="st5" d="M712.69,119.51H721l11.21,29.2c2.46,6.67,3.99,11.48,4.58,14.44h0.37c0.41-1.59,1.26-4.31,2.55-8.16
			c1.29-3.85,5.52-15.67,12.68-35.49h8.32l-22.01,58.31c-2.18,5.76-4.73,9.85-7.64,12.27c-2.91,2.41-6.49,3.62-10.72,3.62
			c-2.37,0-4.7-0.26-7.01-0.79v-6.21c1.71,0.37,3.63,0.56,5.75,0.56c5.33,0,9.12-2.99,11.4-8.97l2.85-7.29L712.69,119.51z"/>
	</g>
	<g>
		<path class="st5" d="M474.95,124.27c2.46,2.04,7.6,6.32,7.6,14.46c0,7.92-4.5,11.68-9,15.21c-1.39,1.39-3,2.9-3,5.25
			c0,2.35,1.61,3.64,2.79,4.6l3.86,2.99c4.71,3.96,8.99,7.61,8.99,15c0,10.07-9.75,20.24-28.17,20.24
			c-15.53,0-23.03-7.39-23.03-15.32c0-3.85,1.92-9.31,8.25-13.07c6.64-4.07,15.64-4.6,20.46-4.93c-1.5-1.93-3.21-3.96-3.21-7.28
			c0-1.82,0.54-2.89,1.07-4.18c-1.18,0.11-2.36,0.22-3.43,0.22c-11.35,0-17.78-8.46-17.78-16.81c0-4.93,2.25-10.39,6.85-14.35
			c6.11-5.03,13.39-5.89,19.18-5.89h22.06l-6.86,3.86H474.95z M467.34,171.83c-0.86-0.11-1.39-0.11-2.46-0.11
			c-0.96,0-6.76,0.22-11.25,1.72c-2.36,0.85-9.21,3.42-9.21,11.03c0,7.6,7.39,13.07,18.86,13.07c10.28,0,15.74-4.94,15.74-11.57
			C479.02,180.49,475.49,177.61,467.34,171.83z M470.45,151.47c2.46-2.47,2.67-5.89,2.67-7.82c0-7.71-4.6-19.71-13.49-19.71
			c-2.79,0-5.78,1.39-7.5,3.54c-1.82,2.25-2.36,5.14-2.36,7.93c0,7.18,4.18,19.07,13.39,19.07
			C465.85,154.47,468.73,153.19,470.45,151.47z"/>
		<path class="st5" d="M407.52,170.11c-17,0-26.09-13.26-26.09-25.24c0-14.01,11.44-25.98,27.7-25.98
			c15.71,0,25.55,12.29,25.55,25.24C434.68,156.74,424.95,170.11,407.52,170.11z M420.88,161.45c2.57-3.43,3.21-7.7,3.21-11.87
			c0-9.41-4.49-27.38-17.75-27.38c-3.53,0-7.06,1.39-9.62,3.64c-4.17,3.74-4.92,8.44-4.92,13.05c0,10.58,5.24,28,18.18,28
			C414.15,166.9,418.43,164.87,420.88,161.45z"/>
		<path class="st5" d="M349.56,170.11c-17,0-26.09-13.26-26.09-25.24c0-14.01,11.44-25.98,27.7-25.98
			c15.72,0,25.55,12.29,25.55,25.24C376.72,156.74,366.99,170.11,349.56,170.11z M362.93,161.45c2.57-3.43,3.21-7.7,3.21-11.87
			c0-9.41-4.49-27.38-17.76-27.38c-3.53,0-7.06,1.39-9.62,3.64c-4.17,3.74-4.92,8.44-4.92,13.05c0,10.58,5.24,28,18.18,28
			C356.19,166.9,360.47,164.87,362.93,161.45z"/>
		<path class="st5" d="M315.3,168.44l-15.38,3.55c-6.24,0.97-11.83,1.82-17.74,1.82c-29.68,0-40.96-21.83-40.96-38.92
			c0-20.85,16.02-40.2,43.44-40.2c5.81,0,11.39,0.86,16.45,2.26c8.06,2.26,11.83,5.05,14.19,6.67l-8.93,8.49l-3.76,0.86l2.69-4.3
			c-3.65-3.55-10.32-10.1-23.01-10.1c-16.99,0-29.78,12.91-29.78,31.72c0,20.21,14.62,39.24,38.06,39.24
			c6.89,0,10.43-1.4,13.66-2.69v-17.31l-16.23,0.86l8.6-4.63h22.79l-2.79,2.69c-0.76,0.65-0.86,0.87-1.08,1.72
			c-0.11,0.97-0.21,4.09-0.21,5.16V168.44z"/>
		<path class="st5" d="M508.93,165.34c-3.55-0.32-4.29-0.97-4.29-5.16v-1.18V99.33c0.02-0.23,0.04-0.47,0.06-0.69
			c0.43-3.76,1.51-4.41,4.84-6.34h-15.38l-8.07,3.87h8.22v0.05l-0.01-0.04v62.82v3.55c0,2.15-0.43,2.47-2.9,5.69h19.03l3.98-2.36
			C512.59,165.66,510.76,165.56,508.93,165.34z"/>
		<path class="st5" d="M552.68,166.33c-1.17,0.64-2.34,1.39-3.51,1.92c-3.53,1.6-7.16,2.03-10.37,2.03c-3.41,0-8.75-0.22-14.2-4.17
			c-7.57-5.34-10.88-14.52-10.88-22.53c0-16.55,13.45-24.66,24.45-24.66c3.84,0,7.8,0.96,11,2.99c5.33,3.52,6.72,8.11,7.46,10.56
			l-25.08,10.15l-8.22,0.64c2.67,13.56,11.85,21.45,21.99,21.45c5.44,0,9.4-1.92,13.02-3.73L552.68,166.33z M542.65,134.51
			c2.02-0.75,3.09-1.39,3.09-2.88c0-4.27-4.8-9.18-10.57-9.18c-4.28,0-12.28,3.31-12.28,14.84c0,1.82,0.21,3.74,0.32,5.66
			L542.65,134.51z"/>
		<g>
			<path class="st5" d="M562.99,119.65v7.05h-0.86v-7.05h-2.33v-0.73h5.52v0.73H562.99z"/>
			<path class="st5" d="M572.59,126.7v-7.11h-0.04l-2.17,7.11h-0.67l-2.19-7.11h-0.03v7.11h-0.78v-7.78h1.33l1.98,6.28h0.03
				l1.95-6.28h1.35v7.78H572.59z"/>
		</g>
	</g>
	<g>
		<path class="st6" d="M262.57,73.75h-5.34c0-0.73-0.51-2.82-1.52-6.24H248c-1.05,3.37-1.57,5.45-1.57,6.24h-5.03
			c0-0.43,1.3-4,3.9-10.68c2.6-6.69,3.9-10.37,3.9-11.05h6.31c0,0.63,1.18,4.26,3.53,10.89C261.4,69.53,262.57,73.15,262.57,73.75z
			 M254.86,64.32c-1.9-5.74-2.85-8.85-2.85-9.32h-0.27c0,0.43-0.99,3.54-2.95,9.32H254.86z"/>
		<path class="st6" d="M284.1,73.75h-4.12c0-0.46-1.53-2.87-4.59-7.23c-3.21-4.6-5.03-7.74-5.48-9.43h-0.27
			c0.28,2.44,0.42,4.64,0.42,6.61c0,2.75,0.08,6.1,0.23,10.05h-4.11c0.17-3.45,0.25-7.24,0.25-11.37c0-4.06-0.08-7.52-0.25-10.37
			h4.96c0,0.59,1.37,2.94,4.12,7.06c2.93,4.37,4.61,7.34,5.04,8.9h0.25c-0.27-2.48-0.4-4.71-0.4-6.68c0-3.02-0.08-6.11-0.23-9.28
			h4.17c-0.16,2.76-0.23,6.22-0.23,10.37C283.87,66.57,283.94,70.36,284.1,73.75z"/>
		<path class="st6" d="M308.3,62.13c0,3.16-1.01,5.92-3.04,8.28c-2.03,2.36-4.86,3.54-8.51,3.54c-1.65,0-3.92-0.07-6.81-0.2
			c0.14-3.36,0.22-7.15,0.22-11.37c0-4.05-0.07-7.51-0.22-10.37h2.92c0.48,0,1.19-0.02,2.14-0.05c0.95-0.03,1.56-0.05,1.85-0.05
			c4.02,0,6.93,1,8.74,3.01C307.39,56.92,308.3,59.33,308.3,62.13z M303.74,62.85c0-2.14-0.62-3.94-1.87-5.4
			c-1.25-1.46-3.15-2.19-5.71-2.19c-0.48,0-1.14,0.05-1.97,0.15c0.11,2.23,0.17,4.55,0.17,6.98c0,2.66,0.06,5.3,0.17,7.91
			c0.72,0.14,1.45,0.22,2.17,0.22c2.39,0,4.17-0.74,5.32-2.23C303.16,66.8,303.74,64.99,303.74,62.85z"/>
		<path class="st6" d="M330.61,73.75h-4.94c-1.29-3.94-2.28-6.37-2.97-7.3c-0.69-0.92-1.8-1.39-3.34-1.39
			c-0.65,0-1.26,0.01-1.85,0.02c0,2.86,0.05,5.75,0.15,8.66h-4.64c0.14-3.36,0.22-7.15,0.22-11.37c0-4.05-0.07-7.51-0.22-10.37h2.89
			c0.33,0,1.03-0.02,2.1-0.05c1.06-0.03,2.05-0.05,2.95-0.05c5.11,0,7.66,1.75,7.66,5.24c0,2.77-1.46,4.7-4.37,5.79v0.25
			c1.12,0.31,2.11,1.19,2.95,2.63C328.03,67.27,329.17,69.91,330.61,73.75z M324.35,58.39c0-2.21-1.43-3.32-4.27-3.32
			c-1.05,0-1.97,0.08-2.77,0.23c0.12,1.73,0.18,3.97,0.18,6.74c0.61,0.02,1.13,0.03,1.55,0.03
			C322.58,62.08,324.35,60.85,324.35,58.39z"/>
		<path class="st6" d="M354.54,62.48c0,3.42-1.05,6.25-3.14,8.5c-2.09,2.25-4.68,3.37-7.76,3.37c-2.94,0-5.4-1.03-7.38-3.1
			c-1.98-2.06-2.97-4.69-2.97-7.87c0-3.42,1.05-6.25,3.14-8.5c2.09-2.25,4.68-3.37,7.76-3.37c2.94,0,5.4,1.03,7.38,3.09
			C353.55,56.66,354.54,59.29,354.54,62.48z M349.93,62.97c0-2.33-0.6-4.21-1.79-5.66c-1.19-1.45-2.66-2.17-4.41-2.17
			c-1.63,0-3.01,0.73-4.14,2.19c-1.14,1.46-1.7,3.3-1.7,5.53c0,2.31,0.6,4.2,1.79,5.65c1.2,1.45,2.66,2.18,4.4,2.18
			c1.62,0,3.01-0.73,4.14-2.2C349.36,67.02,349.93,65.18,349.93,62.97z"/>
		<path class="st6" d="M363.98,73.75h-4.72c0.14-3.45,0.22-7.24,0.22-11.37c0-4.06-0.07-7.52-0.22-10.37h4.72
			c-0.14,2.8-0.22,6.26-0.22,10.37C363.76,66.58,363.83,70.37,363.98,73.75z"/>
		<path class="st6" d="M388.18,62.13c0,3.16-1.01,5.92-3.04,8.28c-2.03,2.36-4.86,3.54-8.51,3.54c-1.65,0-3.92-0.07-6.81-0.2
			c0.14-3.36,0.22-7.15,0.22-11.37c0-4.05-0.07-7.51-0.22-10.37h2.92c0.48,0,1.19-0.02,2.14-0.05c0.95-0.03,1.56-0.05,1.85-0.05
			c4.02,0,6.93,1,8.74,3.01C387.27,56.92,388.18,59.33,388.18,62.13z M383.62,62.85c0-2.14-0.62-3.94-1.87-5.4
			c-1.25-1.46-3.15-2.19-5.71-2.19c-0.48,0-1.14,0.05-1.97,0.15c0.11,2.23,0.17,4.55,0.17,6.98c0,2.66,0.06,5.3,0.17,7.91
			c0.72,0.14,1.45,0.22,2.17,0.22c2.39,0,4.17-0.74,5.32-2.23C383.04,66.8,383.62,64.99,383.62,62.85z"/>
		<path class="st6" d="M420.28,73.75h-5.34c0-0.73-0.51-2.82-1.52-6.24h-7.71c-1.05,3.37-1.57,5.45-1.57,6.24h-5.02
			c0-0.43,1.3-4,3.9-10.68c2.6-6.69,3.9-10.37,3.9-11.05h6.31c0,0.63,1.18,4.26,3.53,10.89C419.1,69.53,420.28,73.15,420.28,73.75z
			 M412.57,64.32c-1.9-5.74-2.86-8.85-2.86-9.32h-0.27c0,0.43-0.98,3.54-2.95,9.32H412.57z"/>
		<path class="st6" d="M439.75,57.71c0,2.66-0.99,4.62-2.96,5.89c-1.97,1.27-4.4,1.9-7.27,1.9c-0.52,0-0.9-0.01-1.12-0.03
			c0,2.09,0.06,4.85,0.18,8.28h-4.69c0.14-3.22,0.22-7.01,0.22-11.37c0-4.01-0.07-7.46-0.22-10.37h2.9c0.41,0,1.2-0.02,2.37-0.05
			c1.17-0.03,2.18-0.05,3.04-0.05c2.11,0,3.9,0.48,5.36,1.44C439.02,54.31,439.75,55.76,439.75,57.71z M435.45,58.63
			c0-2.38-1.58-3.57-4.74-3.57c-0.79,0-1.63,0.08-2.5,0.25c0.12,2.1,0.18,4.48,0.18,7.15c0.28,0.02,0.6,0.03,0.97,0.03
			C433.41,62.48,435.45,61.2,435.45,58.63z"/>
		<path class="st6" d="M459.78,57.71c0,2.66-0.99,4.62-2.96,5.89c-1.98,1.27-4.4,1.9-7.27,1.9c-0.52,0-0.9-0.01-1.12-0.03
			c0,2.09,0.06,4.85,0.18,8.28h-4.69c0.14-3.22,0.22-7.01,0.22-11.37c0-4.01-0.07-7.46-0.22-10.37h2.9c0.41,0,1.2-0.02,2.37-0.05
			c1.17-0.03,2.18-0.05,3.04-0.05c2.11,0,3.9,0.48,5.36,1.44C459.05,54.31,459.78,55.76,459.78,57.71z M455.47,58.63
			c0-2.38-1.58-3.57-4.74-3.57c-0.79,0-1.63,0.08-2.5,0.25c0.12,2.1,0.18,4.48,0.18,7.15c0.28,0.02,0.6,0.03,0.97,0.03
			C453.44,62.48,455.47,61.2,455.47,58.63z"/>
		<path class="st6" d="M492.51,62.48c0,3.42-1.05,6.25-3.14,8.5s-4.68,3.37-7.76,3.37c-2.94,0-5.4-1.03-7.38-3.1
			c-1.98-2.06-2.97-4.69-2.97-7.87c0-3.42,1.05-6.25,3.14-8.5c2.09-2.25,4.68-3.37,7.76-3.37c2.94,0,5.4,1.03,7.38,3.09
			C491.52,56.66,492.51,59.29,492.51,62.48z M487.9,62.97c0-2.33-0.6-4.21-1.79-5.66c-1.19-1.45-2.66-2.17-4.41-2.17
			c-1.63,0-3.01,0.73-4.14,2.19c-1.14,1.46-1.7,3.3-1.7,5.53c0,2.31,0.6,4.2,1.8,5.65c1.2,1.45,2.66,2.18,4.4,2.18
			c1.63,0,3.01-0.73,4.14-2.2C487.34,67.02,487.9,65.18,487.9,62.97z"/>
		<path class="st6" d="M515.14,73.75h-4.12c0-0.46-1.53-2.87-4.59-7.23c-3.21-4.6-5.03-7.74-5.48-9.43h-0.27
			c0.28,2.44,0.42,4.64,0.42,6.61c0,2.75,0.08,6.1,0.23,10.05h-4.11c0.17-3.45,0.25-7.24,0.25-11.37c0-4.06-0.08-7.52-0.25-10.37
			h4.96c0,0.59,1.38,2.94,4.12,7.06c2.93,4.37,4.61,7.34,5.04,8.9h0.25c-0.27-2.48-0.4-4.71-0.4-6.68c0-3.02-0.08-6.11-0.23-9.28
			h4.17c-0.16,2.76-0.23,6.22-0.23,10.37C514.91,66.57,514.98,70.36,515.14,73.75z"/>
	</g>
</g>
</svg>
